<?xml version="1.0" encoding="UTF-8" standalone="no"?>
<svg xmlns="http://www.w3.org/2000/svg" width="26.458334mm" height="26.190769mm" viewBox="0 0 26.458334 26.190769">
  <g transform="translate(-108.518495 -171.940894) scale(.86447)">
    <g transform="translate(90.020974 139.155809) scale(.51813)">
      <path fill="#fff" d="m83.311973 169.32515-.0729-4.16719-3.24115-.37618-3.24114-.37619v-27.864l3.24114-.37619 3.24115-.37619.0693-10.12031.0693-10.12032h31.086297l6.41412 6.41814 6.41412 6.41813v45.10749H83.384813Z"/>
      <g transform="translate(35.243573 -15.3606)">
        <path fill="#f3b79a" d="M53.468375 182.94508c0-1.02894.0018-1.21345.0018-1.21345l2.35684-.003.0226 2.37819h-2.38124Zm4.762499.1036c0-.58208.02213-1.4464.02213-1.4464l1.66605.0672 3.400963.01s1.701831.0467 12.505649.0467h10.980208v2.38125H58.23087Zm6.614583-5.68854v-1.19062h21.960416v2.38125H64.845457Zm0-5.55625v-1.19062h21.960416v2.38125H64.845457Zm0-5.55625v-1.19062h21.960416v2.38125H64.845457Zm6.879167-22.92331v-5.06394l1.446948.0555c1.618719.24852 3.574705.70048 4.471206 1.5427.964444.8653 1.549454 1.21285.961012 2.88727l.924695 1.33742 1.337279-.16813c.36181.56042.6621 1.31604.6621 1.31604.214898.98053.288831 1.40524.315096 2.26459l.0095.8925H71.724586z"/>
        <path fill="#9a9999" d="M47.912125 184.90077c0-1.79329-.0392-4.26209.01513-4.8721.05433-.61001.153546-.7717.333111-.7717.528921-.61557.445512.82104.445512 5.24692v3.83646h42.862495v-43.92083H78.60379v-12.96458H48.705875v9.78958c0 12.64742-.08773 18.34963-.433352 18.34963-.345905 0-.360398-5.77063-.360398-18.74651v-10.18645h31.357092l6.546453 6.55038 6.546453 6.55038v45.37215H47.912125Zm43.391664-41.34335c0-.0376-2.678906-2.74527-5.953124-6.01707l-5.953125-5.94871v12.03413h5.953125c3.274218 0 5.953124-.0308 5.953124-.0683zm-21.22773 16.35369c-4.735895-.0893-10.048894-4.05416-9.974509-9.88198.02049-5.02755 5.029807-9.98118 10.035574-10.1757v10.12234h10.122339c-.05415 6.17881-4.65394 9.89218-10.183404 9.93534z"/>
      </g>
    </g>
    <g transform="matrix(.51664 0 0 .51705 53.86815308 91.10037268)">
      <path fill="#fff" d="M138.71161 227.93559h31.74996v31.74988h-31.74996z"/>
      <path fill="#ce4525" d="M138.71161 243.81059v-15.875h26.91865l4.86181.005-.0305 8.45079v23.29409h-31.75zm29.36875 0 .0276-13.49339-13.52139-.00036-13.49204.00036-.002 13.49339.002 13.49826 13.49204-.005 13.52139.005zm-23.8125 0v-8.73125h20.6375v17.4625h-20.6375zm10.80498 2.37374s-.0279.008-2.07373.008h-2.11667v-2.11667c0-2.0459.00002-2.05595.00002-2.05595-2.32853.006-4.0401 1.94065-4.00571 4.22537.005 2.26405 1.67774 4.20163 4.00569 4.18058 2.21475-.0134 4.22036-1.6051 4.1904-4.24084zm2.93005.83453-1.01384-.002-.001 1.02663 1.01069-.00031zm4.52993 1.01498-.006-1.01306-3.97011.003.004 1.02246zm-4.53189-2.39762.001-1.0243-1.01168.001-.001 1.02179zm4.5156-1.02818-3.96243.001-.006 1.02178 3.97253.006zm-4.51055-1.34296-.004-1.03946-1.00411-.001-.004 1.04453zm4.51308-1.03829-3.95486.006-.001 1.03189 3.95484.006zm.7988-4.36933v-1.19062h-17.4625v2.38125h17.4625z"/>
    </g>
  </g>
</svg>